<svg xmlns="http://www.w3.org/2000/svg" xmlns:svgjs="http://svgjs.com/svgjs" width="300" height="136.7703094482422" version="1.1" xlink="http://www.w3.org/1999/xlink" preserveAspectRatio="xMidYMid meet" style=""><rect id="backgroundrect" width="100%" height="100%" x="0" y="0" fill="none" stroke="none"/><defs id="SvgjsDefs1108"><linearGradient id="SvgjsLinearGradient2bcvwFbN8" x1="0.00006777817907277495" y1="1.0000678300857544" x2="0.9999322295188904" y2="-0.00006779654358979315"><stop id="SvgjsStop1111" stop-color="#4591fc" offset="0.05"/><stop id="SvgjsStop1112" stop-color="#0351be" offset="0.95"/></linearGradient></defs><g class="currentLayer" style=""><title>Layer 1</title><g id="SvgjsG1113" class="qqiWNizy5" light-content="false" non-strokable="false" fill="url(#SvgjsLinearGradient2bcvwFbN8)"><path d="M123.34970581278608,79.19837029802974 l-23.499812749604136,-23.644286083465555 c-2.0585645834801842,-2.0712203306349966 -5.700359121928248,-2.0712203306349966 -7.755267285189104,0 l-24.563831033427817,24.714845792550427 c-4.022062241257904,4.046789278327697 -11.031419801704633,4.046789278327697 -15.053482042962537,0 a10.658464939333445,10.723991587568399 0 0 1 0,-15.146028598977392 l24.563831033427817,-24.714845792550427 a5.484630328988051,5.518349015901406 0 0 0 0,-7.802945508484588 l-23.499812749604136,-23.644286083465555 c-2.0585645834801842,-2.0712203306349966 -5.700359121928248,-2.0712203306349966 -7.755267285189104,0 l-24.563831033427817,24.714845792550427 c-21.382745442614745,21.51788226267155 -21.382745442614745,56.52260952020613 0,78.0404917828777 a54.49163052860595,54.82663692265244 0 0 0 38.783649266384174,16.165083717247185 c14.647619398617422,0 28.421354364816082,-5.742761875881396 38.779992846164845,-16.165083717247185 l24.563831033427817,-24.714845792550427 a5.484630328988051,5.518349015901406 0 0 0 0,-7.802945508484588 zM49.66552555294126,20.667081736035456 l15.74454546441503,15.841340574980968 l-8.75347000506493,8.807285029378644 l-15.74454546441503,-15.841340574980968 l8.75347000506493,-8.807285029378644 zm10.344012800471464,96.17746554847363 a43.5881854345777,43.85615907904044 0 0 1 -31.02838198119507,-12.93133119392896 c-17.10473378600407,-17.213570030268453 -17.10473378600407,-45.221030735640056 0,-62.434600765908506 l4.179288310688895,-4.204981950116871 l15.74454546441503,15.841340574980968 l-4.179288310688895,4.204981950116871 a21.638694857967522,21.77172631740301 0 0 0 0,30.751919615946566 a21.492438049194508,21.624570343645644 0 0 0 15.287492936999358,6.368174764350223 a21.466843107659233,21.598818048238105 0 0 0 15.28018009656071,-6.368174764350223 l4.179288310688895,-4.204981950116871 l15.74454546441503,15.841340574980968 l-4.179288310688895,4.204981950116871 a43.59915469523568,43.86719577707224 0 0 1 -31.02838198119507,12.93133119392896 zm42.95562473663441,-24.935579753186488 l-15.74454546441503,-15.841340574980968 l8.75347000506493,-8.807285029378644 l15.74454546441503,15.841340574980968 l-8.75347000506493,8.807285029378644 z" id="svg_1" stroke-width="0"/></g><path d="M187.51976020145258,116.38574481289601 C191.30164222049555,115.94599108975146 194.42389365482174,115.41828662197803 196.8865145044311,114.8026314095757 L196.8865145044311,98.8395712594292 C191.78537131595454,99.63112796108935 186.68422812747798,100.02690631191945 181.58308493900142,100.02690631191945 C175.60243430423577,100.02690631191945 171.49073699283443,99.43323878567432 169.2479930047973,98.24590373318408 C167.00524901676022,97.05856868069385 165.57604941654049,94.63992320339892 164.96039420413814,90.98996730129933 C164.3447389917358,87.34001139919971 164.0369113855346,80.5458163766167 164.0369113855346,70.6073822335503 C164.0369113855346,60.668948090483894 164.3447389917358,53.87475306790088 164.96039420413814,50.22479716580128 C165.57604941654049,46.57484126370166 167.00524901676022,44.15619578640673 169.2479930047973,42.9688607339165 C171.49073699283443,41.781525681426274 175.60243430423577,41.18785815518115 181.58308493900142,41.18785815518115 C184.0457057886108,41.18785815518115 189.014922860144,41.58363650601123 196.490736153601,42.3751932076714 L196.490736153601,26.54405917446826 C194.11606604862055,25.840453217437016 191.1037530450805,25.268773377349135 187.4537971429809,24.829019654204586 C183.8038412408813,24.389265931060066 180.2638237695678,24.169389069487806 176.8337447290405,24.169389069487806 C166.983261330603,24.169389069487806 159.705337212561,25.576600983550293 154.9999723749145,28.391024811675294 C150.29460753726804,31.205448639800295 147.15036841678463,35.80087504666065 145.5672550134643,42.17730403225636 C143.98414161014398,48.55373301785205 143.19258490848384,58.030425751616704 143.19258490848384,70.6073822335503 C143.19258490848384,83.3602402047417 143.9621539239868,92.90289599697803 145.50129195499264,99.23534961025929 C147.0404299859985,105.56780322354052 150.16268142032465,110.11925425808643 154.86804625797114,112.88970271389698 C159.57341109561762,115.66015116970752 166.89531058597407,117.04537539761279 176.8337447290405,117.04537539761279 C180.17587302493894,117.04537539761279 183.73787818240964,116.82549853604053 187.51976020145258,116.38574481289601 zM237.91553687381588,115.98996646206592 L258.49601111697996,115.98996646206592 L258.49601111697996,42.90289767544482 L279.9999681787475,42.90289767544482 L279.9999681787475,25.22479800503467 L216.54350592899166,25.22479800503467 L216.54350592899166,42.90289767544482 L237.91553687381588,42.90289767544482 z" id="svg_2" fill="#ffffff" fill-opacity="1" stroke-width="0" class="selected"/></g></svg>